# AST/ASF file generated using VICON BodyLanguage
# -----------------------------------------------
:version 1.10
:name VICON
:units
  mass 1.0
  length 0.45
  angle deg
:documentation
   .ast/.asf automatically generated from VICON data using
   VICON BodyBuilder and BodyLanguage model FoxedUp or BRILLIANT.MOD
:root
   order TX TY TZ RX RY RZ
   axis XYZ
   position 0 0 0  
   orientation 0 0 0 
:bonedata
  begin
     id 1 
     name lhipjoint
     direction 0.702568 -0.596508 0.388042 
     length 2.56661 
     axis 0 0 0  XYZ
  end
  begin
     id 2 
     name lfemur
     direction 0.34202 -0.939693 0  
     length 6.58374  
     axis 0 0 20  XYZ
    dof rx ry rz
    limits (-160.0 20.0)
           (-70.0 70.0)
           (-60.0 70.0)
  end
  begin
     id 3 
     name ltibia
     direction 0.34202 -0.939693 0   
     length 6.62538   
     axis 0 0 20   XYZ
    dof rx
    limits (-10.0 170.0)
  end
  begin
     id 4 
     name lfoot
     direction 0.10455 -0.287249 0.952133   
     length 2.26699   
     axis -90 7.62852e-016 20   XYZ
    dof rx rz
    limits (-45.0 90.0)
           (-70.0 20.0)
  end
  begin
     id 5 
     name ltoes
     direction 1.53572e-011 -4.22322e-011 1   
     length 1.12949   
     axis -90 7.62852e-016 20   XYZ
    dof rx
    limits (-90.0 20.0)
  end
  begin
     id 6 
     name rhipjoint
     direction -0.728055 -0.574632 0.373811   
     length 2.66432  
     axis 0 0 0  XYZ 
  end
  begin
     id 7 
     name rfemur
     direction -0.34202 -0.939693 0   
     length 6.66732   
     axis 0 0 -20   XYZ
    dof rx ry rz
    limits (-160.0 20.0)
           (-70.0 70.0)
           (-70.0 60.0)
  end
  begin
     id 8 
     name rtibia
     direction -0.34202 -0.939693 0   
     length 6.59288   
     axis 0 0 -20   XYZ
    dof rx
    limits (-10.0 170.0)
 end
 begin
     id 9 
     name rfoot
     direction -0.119193 -0.327479 0.93731   
     length 2.38061  
     axis -90 -7.62852e-016 -20   XYZ
    dof rx rz
    limits (-45.0 90.0)
           (-20.0 70.0)
  end
  begin
     id 10 
     name rtoes
     direction -1.53547e-011 -4.21827e-011 1   
     length 1.17899   
     axis -90 -7.62852e-016 -20   XYZ
    dof rx
    limits (-90.0 20.0)
  end
  begin
     id 11 
     name lowerback
     direction -0.000416114 0.999912 -0.0132284   
     length 2.12109   
     axis 0 0 0   XYZ
    dof rx ry rz
    limits (-20.0 45.0)
           (-30.0 30.0)
           (-30.0 30.0)
  end
  begin
     id 12 
     name upperback
     direction -0.00136371 0.99809 0.0617608   
     length 2.10067   
     axis 0 0 0   XYZ
    dof rx ry rz
    limits (-20.0 45.0)
           (-30.0 30.0)
           (-30.0 30.0)
  end
  begin
     id 13 
     name thorax
     direction -3.43026e-005 0.997776 0.0666515   
     length 2.10618   
     axis 0 0 0   XYZ
    dof rx ry rz
    limits (-20.0 45.0)
           (-30.0 30.0)
           (-30.0 30.0)
  end
  begin
     id 14 
     name lowerneck
     direction 0.0398646 0.998418 0.0396592   
     length 1.83817   
     axis 0 0 0   XYZ
    dof rx ry rz
    limits (-20.0 45.0)
           (-30.0 30.0)
           (-30.0 30.0)
  end
  begin
     id 15 
     name upperneck
     direction -0.0367268 0.961527 -0.272244   
     length 1.81975   
     axis 0 0 0   XYZ
    dof rx ry rz
    limits (-20.0 45.0)
           (-30.0 30.0)
           (-30.0 30.0)
  end
  begin
     id 16
     name head
     direction -0.0182665 0.99536 -0.0944669  
     length 1.86026  
     axis 0 0 0   XYZ
    dof rx ry rz
    limits (-20.0 45.0)
           (-30.0 30.0)
           (-30.0 30.0)
  end
  begin
     id 17 
     name lclavicle
     direction 0.924239 0.361045 0.124212  
     length 3.26878  
     axis 0 0 0   XYZ
    dof ry rz
    limits (-20.0 10.0)
           (0.0 20.0)
  end
  begin
     id 18 
     name lhumerus
     direction 1 -4.48968e-011 -2.56583e-027   
     length 4.58538   
     axis 180 -30 -90   XYZ
    dof rx ry rz
    limits (-60.0 90.0)
           (-90.0 90.0)
           (-90.0 90.0)
  end
  begin
     id 19
     name lradius
     direction 1 -4.4898e-011 -5.50375e-027   
     length 2.68935   
     axis 180 -30 -90   XYZ
    dof rx
    limits (-10.0 170.0)
  end
  begin
     id 20
     name lwrist
     direction 1 -4.48939e-011 -1.48955e-026   
     length 1.34468   
     axis 9.0955e-015 90 90   XYZ
    dof ry
    limits (-180.0 0.0)
 end
  begin
     id 21 
     name lhand
     direction 1 -4.48936e-011 -2.97907e-026   
     length 0.585058   
     axis 1.90115e-014 90 90   XYZ
    dof rx rz
    limits (-90.0 90.0)
           (-45.0 45.0)
  end
  begin
     id 22 
     name lfingers
     direction 1 -4.49082e-011 -5.96235e-026   
     length 0.471689   
     axis 3.80223e-014 90 90   XYZ
    dof rx
    limits (0.0 90.0)
  end
  begin
     id 23
     name lthumb
     direction 0.707107 -6.3489e-011 0.707107   
     length 0.677253   
     axis -90 45 -3.84942e-014   XYZ
    dof rx rz
    limits (-45.0 45.0)
           (-45.0 45.0)
  end
  begin
     id 24 
     name rclavicle
     direction -0.923098 0.371783 0.0983239   
     length 3.19656  
     axis 0 0 0   XYZ 
    dof ry rz
    limits (-10.0 20.0)
           (-20.0 0.0)
  end
  begin
     id 25 
     name rhumerus
     direction -1 -4.48976e-011 -2.5492e-027  
     length 4.4745   
     axis 180 30 90   XYZ
    dof rx ry rz
    limits (-90.0 60.0)
           (-90.0 90.0)
           (-90.0 90.0)
  end
  begin
     id 26 
     name rradius
     direction -1 -4.48941e-011 -4.36555e-027   
     length 2.93896   
     axis 180 30 90   XYZ
    dof rx
    limits (-10.0 170.0)
  end
  begin
     id 27 
     name rwrist
     direction -1 -4.49044e-011 -1.49032e-026   
     length 1.46948   
     axis 9.0955e-015 -90 -90   XYZ
    dof ry
    limits (-180.0 0.0)
  end
  begin
     id 28
     name rhand
     direction -1 -4.48826e-011 -2.97749e-026   
     length 0.405092   
     axis 1.90115e-014 -90 -90   XYZ
    dof rx rz
    limits (-90.0 90.0)
           (-45.0 45.0)
  end
  begin
     id 29
     name rfingers
     direction -1 -4.49209e-011 -5.96602e-026   
     length 0.326596   
     axis 3.80223e-014 -90 -90   XYZ
    dof rx
    limits (0.0 90.0)
  end
  begin
     id 30
     name rthumb
     direction -0.707107 -6.34776e-011 0.707107   
     length 0.468928   
     axis -90 -45 3.84942e-014   XYZ
    dof rx rz
    limits (-45.0 45.0)
           (-45.0 45.0)
  end
:hierarchy
  begin
    root lhipjoint rhipjoint lowerback
    lhipjoint lfemur
    lfemur ltibia
    ltibia lfoot
    lfoot ltoes
    rhipjoint rfemur
    rfemur rtibia
    rtibia rfoot
    rfoot rtoes
    lowerback upperback
    upperback thorax
    thorax lowerneck lclavicle rclavicle
    lowerneck upperneck
    upperneck head
    lclavicle lhumerus
    lhumerus lradius
    lradius lwrist
    lwrist lhand lthumb
    lhand lfingers
    rclavicle rhumerus
    rhumerus rradius
    rradius rwrist
    rwrist rhand rthumb
    rhand rfingers
  end

#!OML:ASF H:\Punching\Project 1\Capture day 1\Session 1\female.ASF
:FULLY-SPECIFIED
:DEGREES
483
root -0.0310525 14.7803 1.07026 12.1833 -2.01378 0.00527542
lowerback 1.25309 1.01141 0.826627
upperback -5.5139 1.4612 1.17208
thorax -6.43644 0.7162 0.657067
lowerneck -10.508 -3.45494 5.85723
upperneck 27.4154 -7.82848 5.58481
head 10.6033 -2.3386 0.0581998
rclavicle -1.52195e-014 1.59028e-015
rhumerus 24.7104 -0.765257 -65.8354
rradius 103.64
rwrist -46.5738
rhand -7.58283 -26.7634
rfingers 7.12502
rthumb 18.3102 -55.9216
lclavicle -1.52195e-014 1.59028e-015
lhumerus 21.0349 -46.7677 82.6126
lradius 133.013
lwrist 13.7893
lhand -23.3696 8.50029
lfingers 7.12502
lthumb 3.08616 38.4577
rfemur 15.3397 -10.363 7.3563
rtibia 3.81667e-014
rfoot -15.5721 -23.355
rtoes -10.7567
lfemur -45.3874 -2.48142 -8.73436
ltibia 40.2001
lfoot -4.92078 5.32062
ltoes -10.4846
484
root -0.0389746 14.7704 1.06676 11.9886 -0.826133 0.150876
lowerback 1.23617 1.39983 1.1614
upperback -5.54208 1.99443 1.06683
thorax -6.44553 0.96077 0.324268
lowerneck -10.3129 -4.14616 5.08085
upperneck 27.437 -8.68342 5.83038
head 10.6158 -2.77624 0.17831
rclavicle -1.00635e-015 3.18055e-015
rhumerus 27.169 -1.97234 -64.7437
rradius 98.0457
rwrist -46.3533
rhand -7.5591 -27.5295
rfingers 7.12502
rthumb 18.333 -56.6855
lclavicle -1.00635e-015 3.18055e-015
lhumerus 21.0777 -46.9215 82.3738
lradius 132.642
lwrist 13.7014
lhand -23.0524 8.3417
lfingers 7.12502
lthumb 3.39246 38.2945
rfemur 15.9972 -11.025 7.40227
rtibia 1.59028e-014
rfoot -15.8506 -23.6407
rtoes -10.2335
lfemur -45.5492 -3.20985 -8.89603
ltibia 40.0892
lfoot -4.6999 4.8991
ltoes -10.5571
485
root -0.0459073 14.761 1.06186 11.7469 0.222871 0.29967
lowerback 1.27354 1.76329 1.46678
upperback -5.54215 2.494 0.976792
thorax -6.45033 1.19044 0.025378
lowerneck -10.1436 -4.75441 4.39846
upperneck 27.5362 -9.4285 5.97683
head 10.6617 -3.16124 0.259477
rclavicle -9.26834e-015 -9.54166e-015
rhumerus 29.7673 -2.9476 -63.6985
rradius 91.8554
rwrist -45.8141
rhand -8.19479 -28.1587
rfingers 7.12502
rthumb 17.7214 -57.3712
lclavicle -9.26834e-015 -9.54166e-015
lhumerus 21.0968 -47.0005 82.1497
lradius 132.292
lwrist 13.5109
lhand -22.7901 8.17622
lfingers 7.12502
lthumb 3.64576 38.1248
rfemur 16.6481 -11.5477 7.41959
rtibia -9.54166e-015
rfoot -16.1178 -23.9562
rtoes -9.76378
lfemur -45.6078 -3.89312 -9.06248
ltibia 39.9759
lfoot -4.50066 4.559
ltoes -10.5789
486
root -0.0520874 14.7522 1.05574 11.4761 1.12575 0.451879
lowerback 1.34889 2.1022 1.74164
upperback -5.52692 2.9603 0.896817
thorax -6.45657 1.40533 -0.24473
lowerneck -9.98631 -5.27964 3.8129
upperneck 27.7151 -10.066 6.03829
head 10.7361 -3.49299 0.306153
rclavicle -1.19768e-014 -2.22639e-014
rhumerus 32.4637 -3.71952 -62.7281
rradius 85.1031
rwrist -44.9142
rhand -9.4598 -28.6413
rfingers 7.12502
rthumb 16.5038 -57.9594
lclavicle -1.19768e-014 -2.22639e-014
lhumerus 21.0572 -47.0357 81.9821
lradius 131.972
lwrist 13.1993
lhand -22.5863 8.03038
lfingers 7.12502
lthumb 3.84259 37.9755
rfemur 17.2694 -11.9284 7.4149
rtibia -5.08889e-014
rfoot -16.3629 -24.3122
rtoes -9.36849
lfemur -45.5777 -4.49167 -9.24508
ltibia 39.8555
lfoot -4.32133 4.27093
ltoes -10.5715
487
root -0.0580815 14.7442 1.04868 11.1954 1.87911 0.605711
lowerback 1.45148 2.41877 1.98388
upperback -5.5108 3.39595 0.817632
thorax -6.47445 1.60641 -0.49512
lowerneck -9.83741 -5.72775 3.31903
upperneck 27.9783 -10.6124 6.04991
head 10.84 -3.7753 0.329687
rclavicle 3.13785e-014 2.8625e-014
rhumerus 35.2121 -4.33823 -61.8693
rradius 77.8485
rwrist -43.5908
rhand -11.2228 -28.9796
rfingers 7.12502
rthumb 14.8058 -58.4307
lclavicle 3.13785e-014 2.8625e-014
lhumerus 20.9508 -47.0379 81.8924
lradius 131.675
lwrist 12.7942
lhand -22.4224 7.91159
lfingers 7.12502
lthumb 4.00092 37.8538
rfemur 17.839 -12.1684 7.39916
rtibia -3.81667e-014
rfoot -16.5854 -24.7102
rtoes -9.04031
lfemur -45.4762 -4.97045 -9.44893
ltibia 39.726
lfoot -4.16282 4.00624
ltoes -10.5603
488
root -0.0643025 14.7376 1.04088 10.9234 2.48338 0.757015
lowerback 1.56021 2.71489 2.19678
upperback -5.49144 3.80251 0.729851
thorax -6.48955 1.79421 -0.736731
lowerneck -9.71778 -6.09882 2.92743
upperneck 28.3102 -11.0766 6.03943
head 10.9716 -4.00812 0.336383
rclavicle -4.50457e-014 7.95139e-016
rhumerus 37.9756 -4.87566 -61.1731
rradius 70.1891
rwrist -41.7705
rhand -13.2541 -29.2115
rfingers 7.12502
rthumb 12.8482 -58.796
lclavicle -4.50457e-014 7.95139e-016
lhumerus 20.8103 -47.0399 81.8636
lradius 131.399
lwrist 12.2763
lhand -22.2933 7.84456
lfingers 7.12502
lthumb 4.12557 37.7844
rfemur 18.335 -12.2722 7.38549
rtibia 2.54444e-014
rfoot -16.7794 -25.1538
rtoes -8.79174
lfemur -45.3226 -5.31278 -9.66841
ltibia 39.5861
lfoot -4.02787 3.74938
ltoes -10.5439
